<?xml version="1.0" standalone="no"?>
<!DOCTYPE svg PUBLIC "-//W3C//DTD SVG 20010904//EN"
 "http://www.w3.org/TR/2001/REC-SVG-20010904/DTD/svg10.dtd">
<svg version="1.0" xmlns="http://www.w3.org/2000/svg"
 width="1080.000000pt" height="1080.000000pt" viewBox="0 0 1080.000000 1080.000000"
 preserveAspectRatio="xMidYMid meet">

<g transform="translate(0.000000,1080.000000) scale(0.100000,-0.100000)"
fill="#000000" stroke="none">
<path d="M3140 9415 c-210 -29 -404 -88 -610 -186 -629 -300 -1063 -908 -1150
-1609 -7 -56 -10 -791 -10 -2217 0 -2289 -1 -2228 50 -2447 51 -219 167 -489
288 -670 159 -237 386 -459 618 -604 177 -110 376 -195 579 -247 262 -67 174
-65 2498 -65 1412 0 2130 3 2195 11 293 32 615 140 852 286 255 158 467 361
631 607 189 281 300 584 339 921 13 120 13 1160 -1 1125 -35 -87 -155 -125
-237 -74 -29 19 -21 58 18 96 52 49 63 97 36 161 -35 84 -129 114 -325 104
-117 -7 -347 -40 -360 -52 -3 -4 -6 -230 -6 -503 1 -656 9 -716 103 -767 97
-53 87 -56 -180 -53 -150 2 -242 7 -244 13 -2 6 11 19 29 30 41 26 74 76 93
142 13 45 15 124 12 545 -3 376 -7 501 -17 526 -9 22 -30 42 -68 65 -31 17
-56 37 -57 42 -2 22 495 49 804 44 183 -4 210 -6 251 -25 62 -29 118 -81 140
-129 17 -39 18 10 18 1493 1 1023 -3 1565 -10 1630 -96 873 -750 1596 -1607
1776 -64 14 -161 29 -214 35 -153 17 -4333 13 -4458 -4z m4910 -361 c12 -41
11 -53 -8 -113 -12 -36 -42 -102 -67 -145 -50 -88 -54 -106 -25 -106 11 0 20
-4 20 -8 0 -10 -95 -92 -105 -92 -14 0 8 59 65 172 32 64 65 126 72 137 10 16
10 23 1 32 -17 17 -169 -17 -178 -39 -3 -8 -3 -17 0 -20 3 -3 5 0 5 6 0 13 45
-30 60 -58 21 -40 2 -77 -57 -109 -18 -9 -23 -20 -23 -51 0 -35 -3 -40 -23
-40 -13 0 -32 -9 -42 -20 -21 -23 -35 -18 -28 10 3 11 0 20 -6 20 -6 0 -11 6
-11 14 0 9 -16 17 -42 21 -24 4 -51 13 -61 20 -17 12 -11 21 77 107 53 51 115
111 139 133 23 22 61 62 84 89 49 57 89 86 119 86 17 0 24 -10 34 -46z m-5118
-22 c2 -4 28 -23 58 -42 46 -29 162 -119 180 -140 3 -3 37 -32 75 -65 39 -33
72 -63 75 -66 20 -22 104 -70 116 -65 9 3 14 -1 14 -13 0 -15 121 -141 136
-141 3 0 15 -10 27 -21 l22 -21 -25 13 c-14 7 -54 14 -89 15 -50 1 -67 5 -78
19 -7 11 -9 21 -4 24 5 3 6 21 3 39 -6 42 -108 132 -149 132 -14 0 -57 16 -94
35 -40 20 -84 35 -104 35 -19 0 -35 4 -35 10 0 9 -71 33 -78 26 -4 -5 17 -48
27 -56 14 -11 89 -117 104 -146 9 -17 13 -34 10 -38 -9 -9 -43 -8 -42 2 4 25
-8 48 -72 132 -105 140 -154 256 -134 319 6 20 49 31 57 13z m2294 -88 c6 -55
6 -56 -32 -95 -26 -27 -45 -38 -63 -37 -67 4 -78 -1 -111 -52 -18 -28 -35 -48
-38 -45 -3 2 1 13 9 22 8 10 23 34 33 53 52 96 167 227 187 214 4 -2 11 -29
15 -60z m1042 -3 c6 -57 -4 -78 -45 -91 -21 -7 -76 -40 -123 -73 -47 -33 -78
-52 -70 -41 25 32 29 37 91 119 96 128 139 153 147 86z m1849 -223 c-6 -81
-24 -148 -39 -148 -12 0 -10 11 12 76 11 32 20 80 20 107 0 26 3 47 6 47 4 0
4 -37 1 -82z m-83 21 c-20 -22 -54 -44 -54 -34 0 10 52 55 63 55 6 0 2 -9 -9
-21z m-5191 -41 c8 -54 54 -174 77 -203 40 -49 67 -113 73 -173 4 -35 12 -72
18 -83 11 -22 21 -22 104 0 57 15 112 13 175 -5 72 -20 150 -35 315 -62 33 -5
77 -17 97 -25 20 -9 96 -25 168 -37 121 -19 198 -40 226 -61 20 -16 96 -39
106 -33 9 6 -79 75 -142 110 -60 35 -68 40 -111 74 -49 40 -112 92 -119 100
-3 3 -18 16 -34 28 -16 12 -24 22 -19 22 5 0 23 -11 39 -25 16 -14 60 -46 99
-72 38 -26 97 -68 130 -93 71 -54 186 -131 234 -155 l35 -17 26 32 c30 37 50
40 130 16 47 -14 73 -33 175 -127 127 -118 152 -136 166 -122 4 4 9 91 11 193
l3 185 -130 3 c-161 3 -161 3 -139 42 11 18 21 25 25 19 7 -11 140 -1 294 22
39 6 133 13 211 16 l141 6 7 -159 c4 -88 11 -240 15 -339 4 -99 10 -186 15
-193 5 -9 75 -12 279 -12 150 0 282 3 293 6 21 6 22 11 29 295 4 160 4 293 0
297 -3 4 -66 9 -138 12 -105 4 -132 8 -132 19 0 11 15 14 72 12 75 -2 96 8 69
35 -21 20 -20 27 4 49 11 10 20 27 20 37 0 25 29 68 45 68 7 0 18 14 24 31 11
31 54 79 70 79 10 0 24 50 17 58 -3 2 -12 -1 -21 -8 -18 -15 -20 -7 -2 12 7 7
27 32 46 56 25 32 36 40 42 30 5 -8 3 -17 -6 -24 -18 -13 -19 -36 -4 -51 13
-13 -9 -75 -23 -67 -8 5 -12 -9 -8 -39 1 -10 -4 -25 -10 -33 -7 -7 -10 -26 -7
-40 5 -28 -19 -46 -33 -24 -14 23 -63 -53 -68 -105 -3 -42 -1 -47 14 -41 42
16 110 26 244 36 80 6 157 13 173 16 l27 6 0 -209 c0 -144 4 -213 12 -221 15
-15 38 -2 118 68 102 89 106 92 159 121 58 33 122 31 146 -5 23 -32 66 -22
156 39 45 30 84 55 87 55 3 0 -12 -16 -34 -35 -26 -23 -34 -34 -23 -35 20 0
89 23 146 50 24 11 49 20 57 20 8 0 50 15 93 33 43 19 96 40 118 47 22 7 72
27 110 45 45 21 100 37 154 45 46 6 111 20 145 29 33 10 84 19 111 20 95 3
155 25 155 57 0 8 14 35 30 59 17 24 34 54 40 67 5 13 9 18 9 11 1 -6 -14 -42
-33 -78 -30 -59 -33 -73 -29 -124 5 -50 2 -63 -21 -100 -16 -24 -30 -64 -33
-94 -4 -35 -18 -68 -43 -107 -20 -30 -71 -107 -113 -171 -42 -63 -77 -121 -77
-127 0 -14 -1 -14 77 -17 79 -3 96 -16 88 -65 -17 -101 -34 -126 -207 -300
-95 -95 -128 -134 -128 -152 0 -14 -9 -37 -20 -51 -16 -20 -19 -34 -14 -69 6
-40 4 -45 -20 -56 -14 -6 -45 -29 -68 -50 -24 -21 -55 -46 -71 -55 -15 -10
-38 -36 -52 -58 -14 -22 -43 -57 -65 -78 -46 -44 -167 -111 -201 -111 -35 0
-139 -33 -139 -45 0 -16 121 -96 225 -149 125 -64 165 -96 165 -133 0 -34 -34
-62 -82 -68 -95 -13 -108 -16 -108 -29 0 -7 16 -24 35 -37 39 -27 45 -54 15
-64 -11 -3 -24 -14 -30 -24 -7 -14 -26 -20 -75 -23 -45 -4 -73 -12 -87 -24
-16 -15 -40 -20 -120 -22 l-100 -4 -39 -39 c-21 -21 -39 -46 -39 -54 0 -8 -9
-19 -19 -25 -20 -10 -81 -14 -81 -5 0 9 40 45 49 45 5 0 14 7 21 15 11 13 6
15 -31 15 -55 -1 -88 -22 -69 -45 21 -25 -8 -19 -110 25 -123 54 -135 52 -137
-22 -1 -61 -17 -120 -40 -153 -13 -19 -14 -18 -9 10 3 16 11 42 17 58 6 15 9
30 7 33 -3 3 -59 -2 -124 -10 -65 -9 -142 -16 -170 -16 -29 0 -56 -4 -59 -10
-25 -40 -44 27 -34 119 10 91 32 124 27 41 l-3 -55 34 -3 c19 -2 45 2 57 9 19
10 29 9 57 -5 26 -12 50 -14 96 -10 33 4 58 10 56 14 -3 5 -25 6 -50 3 -33 -3
-49 0 -61 12 -18 17 -12 45 9 45 8 0 29 17 49 38 41 44 81 77 89 75 3 -1 12
16 19 38 7 22 18 38 24 36 6 -2 17 -35 26 -73 26 -116 64 -160 48 -55 -11 69
14 327 32 345 16 16 160 12 270 -7 52 -10 117 -21 144 -26 26 -4 52 -14 56
-21 4 -7 11 -48 15 -92 8 -101 36 -100 35 1 0 35 15 48 50 43 24 -3 30 -9 30
-29 0 -14 13 -36 32 -54 37 -33 58 -37 58 -10 0 29 18 38 103 52 105 18 123
49 57 98 -36 26 -282 151 -299 151 -20 0 -88 38 -94 53 -4 11 -19 13 -59 9
-29 -2 -57 -8 -63 -13 -14 -14 -43 -11 -71 8 -25 16 -27 16 -36 0 -5 -9 -20
-17 -33 -17 -13 0 -28 -7 -33 -16 -6 -11 -16 -13 -35 -9 -27 7 -47 25 -28 25
6 0 11 6 11 13 0 15 -201 7 -395 -16 -71 -9 -246 -18 -388 -21 -141 -3 -262
-8 -267 -11 -5 -3 -71 -7 -147 -10 -76 -2 -194 -12 -263 -21 -69 -9 -138 -17
-155 -16 -169 3 -535 0 -555 -4 -75 -17 -155 -46 -183 -67 -29 -22 -156 -58
-252 -72 -63 -10 -75 -15 -75 -36 0 -34 35 -57 97 -64 100 -13 117 -34 58 -74
-41 -28 -46 -51 -10 -51 14 0 25 -4 25 -9 0 -4 29 -11 65 -14 36 -4 71 -10 78
-14 7 -4 21 -6 32 -5 11 2 40 -4 64 -13 43 -15 44 -15 85 15 22 16 53 35 68
41 20 8 28 19 30 42 3 31 4 32 61 35 55 3 57 2 57 -23 0 -22 3 -25 25 -19 20
5 25 2 30 -19 5 -17 16 -27 35 -30 19 -4 31 -15 38 -35 6 -17 7 -34 2 -38 -16
-18 -29 -73 -19 -80 16 -10 -22 -31 -66 -37 -22 -3 -61 -9 -86 -12 -41 -6 -48
-5 -62 15 -8 11 -13 30 -10 41 4 13 0 19 -11 19 -9 0 -25 13 -34 30 -22 39
-34 42 -77 24 -43 -17 -157 -9 -193 14 -13 8 -40 16 -61 18 -21 1 -53 9 -69
18 -17 9 -38 16 -47 16 -27 0 -16 37 21 69 49 43 34 61 -50 61 -33 0 -66 4
-72 8 -7 4 -16 24 -22 44 -10 36 -9 39 23 65 41 34 94 68 238 154 107 64 137
89 102 89 -41 0 -278 109 -342 157 -18 13 -36 34 -39 46 -5 20 -68 78 -146
135 -46 33 -80 87 -72 116 4 17 1 27 -12 34 -18 10 -29 72 -13 72 5 0 9 -7 9
-15 0 -8 5 -15 11 -15 7 0 9 12 5 35 l-7 35 53 0 c49 0 106 14 136 33 7 5 12
4 12 -2 0 -12 61 -13 100 -2 14 4 34 4 45 0 11 -4 33 -10 49 -14 40 -8 25 -18
-31 -20 -71 -3 -137 -17 -145 -29 -4 -6 -8 -20 -8 -31 0 -11 -5 -27 -10 -35
-8 -13 -12 -12 -30 6 -12 11 -23 29 -24 40 -4 24 -76 34 -76 11 0 -8 -7 -20
-15 -27 -21 -17 -19 -42 5 -63 20 -17 24 -31 21 -73 -2 -14 15 -36 49 -65 29
-24 68 -59 87 -78 34 -31 39 -33 87 -27 28 3 122 6 209 6 87 0 156 4 153 9
-12 19 -25 230 -18 282 8 53 7 58 -20 88 -18 20 -28 41 -26 54 4 32 30 27 39
-7 4 -15 16 -37 25 -47 10 -11 19 -31 20 -46 4 -34 30 -55 64 -51 34 4 39 36
9 59 l-24 19 27 0 c34 0 42 14 39 68 -4 59 15 46 23 -16 8 -65 28 -90 74 -95
l37 -4 -42 -1 -43 -2 0 -40 c0 -63 20 -76 131 -83 74 -5 430 -11 497 -8 9 1
12 18 11 59 0 31 0 131 0 221 1 89 -2 167 -5 172 -7 12 -150 11 -314 -2 -127
-10 -290 -3 -355 16 -19 6 -20 2 -18 -72 2 -61 1 -73 -8 -57 -11 22 -87 54
-127 54 -33 0 -62 18 -62 38 0 26 20 42 54 42 74 0 -25 31 -159 50 -83 12
-271 55 -324 75 -33 12 -51 13 -73 6 -16 -6 -121 -13 -234 -17 -229 -8 -232
-9 -196 -72 55 -97 197 -250 265 -287 34 -18 53 -42 43 -52 -10 -10 -156 99
-192 143 -22 26 -50 58 -64 73 -55 57 -137 209 -126 236 3 8 32 16 79 20 41 4
79 10 86 14 12 8 7 16 -123 173 -38 45 -76 101 -86 123 -43 96 -50 117 -50
136 0 11 -13 37 -30 57 -22 28 -32 55 -41 112 -10 62 -20 86 -56 137 -24 35
-51 84 -60 110 -8 27 -21 61 -29 76 -16 32 -19 107 -5 107 5 0 11 -15 14 -32z
m2100 -33 c-3 -9 -8 -14 -10 -11 -3 3 -2 9 2 15 9 16 15 13 8 -4z m-67 -91
c-10 -14 -20 -23 -23 -21 -6 6 30 57 36 51 2 -2 -4 -15 -13 -30z m-45 -47
c-10 -9 -11 -8 -5 6 3 10 9 15 12 12 3 -3 0 -11 -7 -18z m-109 -124 c-67 -80
-122 -138 -122 -131 0 12 147 178 157 178 3 0 -13 -21 -35 -47z m1086 35 c-2
-6 -10 -14 -16 -16 -7 -2 -10 2 -6 12 7 18 28 22 22 4z m-2113 -27 c-6 -5 -25
10 -25 20 0 5 6 4 14 -3 8 -7 12 -15 11 -17z m56 -38 c13 -15 12 -15 -8 -4
-24 12 -29 21 -14 21 5 0 15 -7 22 -17z m1949 -48 c-7 -8 -17 -15 -22 -15 -6
0 -5 7 2 15 7 8 17 15 22 15 6 0 5 -7 -2 -15z m210 -15 c0 -5 -4 -10 -10 -10
-5 0 -10 5 -10 10 0 6 5 10 10 10 6 0 10 -4 10 -10z m1240 -15 c-7 -9 -15 -13
-19 -10 -3 3 1 10 9 15 21 14 24 12 10 -5z m-1490 -5 c0 -5 -5 -10 -11 -10 -5
0 -7 5 -4 10 3 6 8 10 11 10 2 0 4 -4 4 -10z m-1719 -877 c12 -31 6 -53 -15
-53 -20 0 -50 46 -42 65 9 25 45 18 57 -12z m1010 11 c10 -13 10 -17 -2 -25
-32 -20 -67 -4 -55 26 7 20 40 19 57 -1z m-1189 -56 c3 -7 2 -24 0 -37 -5 -23
-6 -24 -13 -6 -11 28 -11 55 0 55 5 0 11 -5 13 -12z m820 -30 c21 -17 32 -55
18 -63 -22 -14 -68 6 -74 31 -4 14 -4 29 -1 34 9 14 38 12 57 -2z m340 -182
l53 -13 -39 -8 c-23 -4 -88 -2 -160 6 l-121 14 85 11 c88 11 93 10 182 -10z
m832 -725 c25 -5 30 -13 46 -71 10 -36 29 -96 43 -133 l25 -68 -35 22 c-29 18
-43 20 -86 14 -94 -13 -410 -16 -440 -4 -46 19 -55 2 -62 -119 -3 -59 -7 -270
-9 -470 -2 -200 -6 -366 -9 -369 -3 -2 -13 7 -23 21 -9 15 -14 29 -10 33 3 3
6 1 6 -5 0 -7 5 -12 11 -12 6 0 9 21 7 53 -3 48 -5 52 -28 52 -14 0 -30 -3
-35 -7 -10 -6 -57 62 -191 277 -67 107 -114 220 -114 274 0 23 4 27 28 26 l27
0 1 85 c2 139 -1 130 36 119 28 -8 35 -6 50 13 10 13 18 38 18 56 0 21 4 31
11 26 6 -3 9 -17 6 -30 -2 -14 1 -25 10 -29 22 -8 36 4 23 20 -19 23 5 55 40
55 34 0 34 1 20 -35 -5 -14 -14 -23 -20 -20 -5 3 -10 -1 -10 -9 0 -8 9 -17 19
-21 27 -8 34 -45 32 -163 l-3 -103 39 3 c31 2 39 7 41 26 2 12 -1 22 -7 22
-27 0 -30 39 -11 146 23 129 66 294 80 308 5 5 85 13 178 16 221 9 262 9 296
1z m-955 -320 c6 -21 11 -45 11 -53 0 -8 11 -24 25 -36 25 -22 33 -42 16 -42
-5 0 -11 7 -15 15 -3 9 -18 15 -36 15 -16 0 -30 5 -30 10 0 16 -27 12 -72 -10
-49 -24 -60 -19 -29 14 16 17 20 30 16 49 -6 22 -1 30 35 56 23 16 47 28 54
25 7 -3 18 -22 25 -43z m1385 -394 c-16 -24 -29 -36 -32 -29 -2 7 8 32 24 55
16 24 29 36 32 29 2 -7 -8 -32 -24 -55z m-51 -76 c-5 -18 -33 -38 -33 -24 0 6
30 43 36 43 1 0 0 -9 -3 -19z m-203 -345 c0 -8 -4 -18 -10 -21 -5 -3 -10 3
-10 14 0 12 5 21 10 21 6 0 10 -6 10 -14z m-3535 -281 c164 -404 346 -864 417
-1055 104 -279 192 -493 226 -550 15 -25 32 -57 39 -72 8 -18 31 -37 67 -55
31 -15 56 -30 56 -34 0 -14 -150 -21 -413 -20 -156 1 -197 9 -132 25 14 4 51
16 81 27 86 32 102 87 65 224 -38 143 -213 619 -231 630 -14 9 -18 -27 -24
-205 -8 -274 -57 -416 -194 -562 -81 -86 -146 -130 -245 -163 -160 -53 -345
-21 -434 76 -35 40 -83 144 -94 209 -8 43 -8 78 0 122 28 163 144 296 424 491
62 42 151 105 200 138 101 71 149 129 145 174 -2 24 -10 32 -38 42 l-35 12 37
0 c28 1 41 -5 57 -25 57 -73 10 -139 -227 -316 -242 -181 -330 -282 -366 -423
-31 -117 -15 -227 45 -318 56 -86 164 -126 282 -107 143 23 249 112 327 274
69 145 99 291 100 486 0 188 -32 316 -158 620 -33 80 -68 171 -78 203 -10 31
-21 57 -24 57 -9 0 -231 -580 -230 -602 0 -33 39 -32 83 3 23 18 44 37 45 41
2 4 8 8 14 8 12 0 -15 -44 -50 -82 -35 -38 -83 -38 -111 -2 -28 36 -27 55 15
159 19 50 46 117 58 150 13 33 59 150 103 260 44 110 86 218 93 240 18 57 31
79 40 69 4 -5 33 -72 65 -149z m4058 -850 c3 -793 7 -863 44 -892 18 -14 67 0
99 28 39 36 48 11 11 -31 -80 -91 -213 -106 -267 -30 -55 78 -54 67 -60 720
l-5 605 -65 3 c-104 5 -106 26 -5 57 70 21 108 47 143 97 32 47 62 138 62 190
0 18 5 51 12 73 l11 40 9 -45 c5 -25 10 -391 11 -815z m1162 464 c133 -23 243
-81 289 -153 21 -32 26 -52 26 -101 0 -60 0 -60 -43 -87 -23 -14 -64 -33 -90
-42 -58 -19 -332 -86 -353 -86 -20 0 -134 -43 -200 -76 -56 -27 -139 -104
-183 -168 -15 -22 -41 -72 -56 -111 -38 -93 -41 -229 -6 -316 36 -95 89 -160
155 -194 175 -89 395 29 534 288 60 110 89 287 73 442 -10 96 -10 101 10 118
31 25 71 21 101 -10 59 -61 78 -171 86 -498 8 -294 9 -299 84 -355 28 -20 44
-38 38 -44 -15 -15 -160 12 -207 40 -70 41 -85 81 -94 263 -5 84 -10 156 -13
158 -6 7 -31 -51 -56 -132 -31 -98 -73 -168 -144 -239 -104 -105 -235 -149
-379 -128 -274 41 -440 290 -371 556 26 99 62 162 134 229 98 93 177 127 489
211 177 48 284 95 316 139 25 35 24 104 -2 149 -49 83 -155 129 -315 136 -90
3 -117 1 -175 -18 -87 -27 -133 -60 -163 -111 -31 -57 -30 -109 4 -145 51 -55
45 -88 -20 -119 -69 -32 -143 10 -169 98 -46 154 97 280 357 317 74 10 258 5
343 -11z m-2090 -4 c215 -39 328 -101 356 -194 16 -54 -9 -105 -73 -148 -55
-36 -154 -69 -443 -148 -246 -67 -355 -155 -412 -332 -55 -175 -9 -394 101
-476 54 -40 96 -52 186 -52 72 1 94 5 140 28 30 15 72 43 93 63 41 38 100 124
112 164 4 14 11 30 15 35 4 6 26 69 48 140 45 143 57 247 43 355 -12 93 -8
100 50 100 37 0 53 -5 69 -22 58 -62 70 -132 79 -468 5 -178 13 -287 21 -308
8 -22 30 -44 66 -67 78 -50 71 -58 -40 -53 -115 5 -160 29 -197 105 -22 43
-24 64 -27 211 -2 90 -8 160 -12 155 -5 -4 -24 -56 -44 -115 -59 -182 -119
-273 -221 -333 -93 -56 -218 -80 -328 -65 -196 28 -318 157 -357 377 -35 195
81 386 300 496 52 27 111 52 130 57 19 5 82 23 140 40 58 17 138 40 179 51
139 38 204 84 217 154 12 64 -34 148 -99 181 -45 24 -170 43 -277 44 -162 0
-259 -40 -299 -122 -32 -68 -28 -111 14 -149 41 -38 46 -75 13 -107 -30 -27
-73 -43 -95 -35 -75 27 -117 97 -111 188 4 66 32 116 91 164 52 43 188 82 317
90 170 12 168 12 255 -4z m-1995 -57 c20 -11 48 -39 63 -63 23 -36 83 -208
117 -335 69 -255 162 -528 221 -644 40 -81 92 -146 115 -146 14 0 13 -2 114
325 39 127 91 293 115 370 67 211 78 335 38 422 -12 25 -27 37 -69 53 -30 11
-62 20 -71 20 -11 0 -13 3 -8 9 6 5 109 13 229 17 227 7 245 4 173 -31 -43
-21 -57 -33 -93 -80 -57 -73 -96 -173 -189 -480 -25 -82 -57 -188 -71 -235
-42 -135 -70 -228 -99 -325 -68 -228 -75 -245 -104 -245 -45 1 -104 35 -151
87 -76 84 -117 185 -205 498 -64 229 -178 574 -215 650 -34 70 -58 91 -133
119 -79 30 -33 45 113 37 50 -2 87 -10 110 -23z m1901 -2010 c17 -17 27 -38
24 -46 -3 -8 7 -37 21 -66 35 -69 35 -68 70 -119 18 -25 35 -60 39 -78 4 -19
29 -77 56 -131 27 -53 49 -103 49 -111 0 -16 -23 -29 -42 -23 -7 3 -25 7 -39
10 -21 5 -29 14 -38 50 -11 43 -40 76 -69 76 -7 0 -25 -11 -39 -25 -39 -35
-74 -40 -122 -16 -25 13 -59 21 -90 21 -54 0 -75 -17 -101 -80 -18 -44 -101
-57 -108 -17 -2 10 51 128 117 263 158 319 203 367 272 292z m-1494 -28 l43
-20 37 20 c63 34 71 23 21 -29 -40 -41 -98 -71 -138 -71 -18 0 -62 13 -98 29
-131 57 -153 46 -189 -89 -26 -102 4 -195 83 -252 36 -26 44 -28 61 -17 16 10
26 9 53 -5 53 -26 110 3 110 56 0 48 -16 68 -56 68 -35 0 -35 1 -32 38 l3 37
118 3 117 3 2 -131 c1 -71 2 -140 2 -151 2 -37 -29 -47 -63 -21 l-31 22 -62
-26 c-91 -39 -196 -39 -262 0 -103 60 -178 226 -148 326 21 68 38 108 61 142
34 49 126 97 203 106 65 8 79 5 165 -38z m3834 28 c16 -30 2 -189 -23 -255
-38 -102 -106 -152 -206 -153 -115 0 -238 65 -281 148 -26 50 -43 145 -39 212
l3 55 45 0 45 0 7 -74 c13 -151 44 -202 131 -215 46 -7 121 7 169 31 38 19 63
104 55 190 -6 59 -5 65 16 73 38 15 66 11 78 -12z m485 -6 c22 -11 56 -38 74
-58 l33 -38 -7 -83 c-6 -79 -5 -86 19 -117 48 -63 46 -171 -5 -223 -47 -48
-108 -59 -224 -39 -63 11 -118 14 -164 10 -38 -4 -72 -3 -75 2 -3 5 -7 133 -8
284 l-4 275 45 7 c25 3 97 5 160 4 95 -2 122 -6 156 -24z m-5389 12 c-3 -3
-12 -4 -19 -1 -8 3 -5 6 6 6 11 1 17 -2 13 -5z m2999 -5 c4 -7 7 -108 6 -226
-1 -118 1 -220 5 -228 6 -18 33 -20 33 -2 0 8 22 12 78 12 87 -1 152 -12 152
-27 0 -6 12 -8 26 -5 14 2 44 -1 67 -8 60 -18 56 -42 -13 -77 -64 -32 -120
-36 -207 -13 -31 8 -97 15 -145 15 l-88 0 0 269 c0 148 3 276 6 285 7 19 69
22 80 5z m782 -109 c1 -63 4 -120 7 -127 3 -9 19 -7 59 8 71 25 84 24 168 -6
98 -35 115 -34 127 13 14 47 14 117 1 162 -7 25 -7 38 3 46 16 16 69 26 84 16
17 -11 21 -568 4 -601 -12 -21 -18 -23 -72 -19 -84 6 -102 28 -23 28 49 1 56
3 39 12 -11 6 -22 12 -24 14 -2 2 -3 57 -2 124 1 66 -1 124 -4 129 -3 5 -32 0
-64 -11 l-59 -20 -46 27 c-36 21 -60 27 -107 28 -85 0 -93 -10 -97 -127 -5
-112 4 -135 47 -128 28 4 33 0 30 -24 0 -4 5 -10 12 -15 10 -6 8 -14 -11 -33
-28 -31 -40 -33 -40 -6 0 11 6 20 13 20 6 0 -1 7 -17 15 -52 27 -101 9 -57
-21 24 -18 28 -54 6 -54 -9 0 -26 10 -38 23 -13 12 -29 22 -37 22 -19 0 -25
39 -11 73 7 20 21 370 21 540 0 9 13 12 43 10 l42 -3 3 -115z m-3783 94 c72
-3 142 -6 157 -7 18 -1 45 -20 78 -52 76 -74 84 -94 85 -205 0 -112 -22 -168
-86 -224 -71 -60 -150 -79 -342 -84 l-168 -4 5 157 c3 86 8 160 11 164 2 5 16
6 30 4 30 -6 32 -1 38 103 l4 82 -29 -10 c-15 -6 -28 -17 -28 -25 0 -8 -4 -11
-10 -8 -5 3 -10 27 -10 54 0 44 2 47 33 57 17 6 48 9 67 7 19 -1 94 -6 165 -9z
m505 -5 c7 -12 9 -37 5 -62 l-7 -41 -12 29 -12 28 -18 -41 c-21 -46 -16 -82 8
-62 12 9 17 7 26 -10 18 -34 9 -74 -17 -78 -36 -5 -27 -22 12 -22 l35 0 0
-145 c0 -160 -2 -165 -69 -165 l-30 0 -3 193 c-2 105 1 212 5 237 4 25 11 60
14 78 3 18 0 38 -7 47 -17 20 -4 35 30 35 19 0 33 -7 40 -21z m590 11 c0 -5
-4 -10 -10 -10 -5 0 -10 5 -10 10 0 6 5 10 10 10 6 0 10 -4 10 -10z m292 -45
c-2 -27 -11 -66 -18 -85 -12 -27 -12 -39 -3 -57 17 -32 -2 -54 -39 -44 -27 8
-27 9 -24 82 1 41 5 93 8 117 5 43 6 43 42 40 l37 -3 -3 -50z m505 39 c103 -8
192 -19 197 -24 14 -14 -113 -70 -159 -70 -91 0 -84 17 -87 -239 l-3 -226 -45
-3 -45 -3 3 244 c3 229 2 245 -15 252 -10 4 -64 10 -121 13 -56 2 -105 8 -108
13 -7 12 42 41 84 50 58 11 98 10 299 -7z m-2140 -186 c-3 -7 -5 -2 -5 12 0
14 2 19 5 13 2 -7 2 -19 0 -25z m1635 -73 c17 -7 19 -288 2 -305 -6 -6 -27
-10 -45 -8 l-34 3 -3 145 c-2 127 -1 146 15 157 18 14 42 16 65 8z m3236 -170
c16 -12 27 -13 41 -5 13 7 22 7 26 0 3 -5 22 -10 41 -10 22 0 40 -7 51 -20 11
-12 30 -20 50 -20 43 0 48 -12 15 -43 -45 -43 -92 -49 -191 -26 -47 10 -124
22 -171 27 -65 5 -85 10 -85 22 0 19 88 61 143 68 23 2 42 9 42 13 0 13 13 11
38 -6z"/>
<path d="M7907 8663 c-4 -3 -7 -11 -7 -17 0 -6 5 -5 12 2 6 6 9 14 7 17 -3 3
-9 2 -12 -2z"/>
<path d="M3358 8143 c-27 -7 -23 -50 7 -69 13 -9 42 -18 64 -21 38 -5 39 -4
34 18 -8 32 -20 46 -56 64 -16 8 -31 14 -31 14 -1 -1 -9 -3 -18 -6z"/>
<path d="M7565 7700 c-156 -29 -273 -53 -292 -61 -15 -5 -23 -19 -27 -41 -2
-18 -10 -62 -16 -98 -17 -90 -17 -115 -2 -112 19 3 14 -25 -6 -40 -24 -17 -56
-102 -48 -124 5 -13 14 -15 39 -10 65 13 136 39 141 52 4 12 -5 13 -51 7 -41
-4 -54 -3 -49 5 4 7 9 22 11 33 3 12 14 31 26 42 15 14 18 22 9 27 -8 5 -3 9
12 13 14 4 30 18 36 32 6 14 16 25 21 25 16 0 81 -33 81 -41 0 -16 116 -2 155
18 22 11 56 24 75 28 33 7 120 69 120 85 0 4 -26 12 -57 17 l-58 8 55 19 c35
11 56 14 58 7 5 -15 58 50 65 80 6 22 3 28 -16 33 -30 8 -232 5 -282 -4z m50
-40 c7 -11 -46 -40 -74 -40 -43 0 7 48 51 49 9 1 19 -3 23 -9z"/>
<path d="M6905 7589 c-197 -20 -245 -27 -260 -39 -23 -19 -18 -37 13 -52 25
-13 27 -17 26 -78 0 -46 4 -68 14 -76 8 -6 15 -23 15 -38 0 -27 1 -28 36 -21
20 4 74 8 121 10 114 3 112 3 109 23 -1 9 1 31 5 47 4 17 12 50 18 75 6 25 17
65 25 89 7 24 12 50 9 58 -6 14 -9 14 -131 2z m-55 -69 c0 -14 -30 -28 -70
-32 -45 -4 -49 24 -5 33 47 10 75 10 75 -1z m105 -50 c-16 -11 -34 -20 -39
-20 -4 0 -21 -11 -37 -25 l-29 -24 50 6 c31 4 50 2 50 -4 0 -20 -75 -60 -124
-66 -48 -7 -49 -7 -31 13 17 19 17 32 0 86 -5 17 -1 23 22 32 16 5 36 6 44 2
8 -5 27 -2 44 5 17 7 41 14 55 14 25 1 25 1 -5 -19z"/>
<path d="M6370 7560 c-91 -4 -166 -7 -167 -8 -1 -1 0 -25 1 -53 2 -43 7 -55
30 -71 21 -16 24 -23 15 -34 -6 -8 -19 -14 -29 -14 -10 0 -21 -7 -24 -16 -9
-23 -4 -25 30 -16 48 13 66 5 60 -30 -6 -39 -8 -41 -55 -41 l-40 0 -10 -51
c-6 -28 -12 -113 -14 -189 l-3 -138 25 7 c14 4 51 8 81 9 30 0 71 6 90 12 107
34 108 34 129 21 32 -19 41 -1 51 98 5 49 16 123 25 164 10 46 17 119 16 189
0 136 -6 172 -29 169 -9 -1 -91 -5 -182 -8z m-30 -210 c0 -5 -7 -10 -15 -10
-8 0 -15 5 -15 10 0 6 7 10 15 10 8 0 15 -4 15 -10z m145 -239 c3 -5 -2 -16
-10 -24 -23 -24 -20 -50 6 -42 18 6 19 5 10 -13 -6 -12 -11 -30 -11 -40 0 -16
-8 -21 -40 -24 -47 -4 -85 6 -59 16 9 4 27 30 40 59 34 76 49 92 64 68z m35
-21 c0 -5 -2 -10 -4 -10 -3 0 -8 5 -11 10 -3 6 -1 10 4 10 6 0 11 -4 11 -10z"/>
<path d="M5899 7495 c-60 -31 -66 -37 -67 -66 -1 -40 -23 -63 -51 -54 -28 9
-27 29 4 43 14 6 25 17 25 23 0 9 -19 9 -72 3 -96 -12 -352 -9 -403 4 -22 6
-66 14 -99 18 l-58 7 5 -49 c4 -27 11 -107 17 -179 5 -71 13 -149 16 -173 l5
-44 127 6 c70 3 177 7 237 9 61 1 116 6 123 10 22 15 1 28 -34 21 -30 -6 -34
-4 -34 16 l0 22 -18 -22 c-20 -25 -48 -19 -38 7 3 8 1 24 -5 35 -15 28 21 67
56 60 17 -3 34 4 55 22 46 38 106 36 153 -5 l35 -31 -17 -39 c-11 -28 -25 -43
-48 -51 -18 -6 -30 -15 -27 -20 7 -11 85 -10 102 1 8 4 18 39 24 77 5 38 13
94 18 124 4 30 15 80 23 110 21 75 30 137 20 143 -4 3 -38 -10 -74 -28z m-369
-195 c0 -5 -2 -10 -4 -10 -3 0 -8 5 -11 10 -3 6 -1 10 4 10 6 0 11 -4 11 -10z
m-164 -160 c8 -8 19 -8 38 0 15 5 53 10 85 10 58 0 59 0 56 -28 -3 -49 -10
-52 -116 -52 -90 0 -117 8 -89 25 6 3 7 17 4 31 -6 25 4 32 22 14z"/>
<path d="M7529 7383 c-8 -2 -19 -18 -25 -36 -7 -25 -18 -35 -51 -47 -23 -8
-45 -19 -49 -23 -11 -11 74 -7 130 6 51 12 75 37 36 37 -17 0 -21 4 -15 18 17
40 9 55 -26 45z"/>
<path d="M6901 7240 c-39 -18 -46 -19 -66 -6 -20 13 -29 13 -76 1 -30 -8 -74
-15 -98 -15 -40 0 -43 -2 -38 -22 4 -12 2 -27 -2 -32 -5 -6 -11 -38 -15 -71
-4 -33 -10 -81 -13 -107 -3 -27 -2 -48 2 -48 5 0 28 12 52 26 30 17 53 24 68
20 13 -3 27 -2 30 4 3 5 1 10 -5 10 -6 0 -8 10 -4 25 5 19 2 25 -9 25 -9 0
-17 10 -19 23 -2 16 -9 21 -25 19 -24 -3 -29 11 -24 66 1 12 -4 22 -11 22 -17
1 21 30 39 30 7 0 13 -7 13 -15 0 -8 -7 -15 -15 -15 -8 0 -15 -4 -15 -9 0 -5
16 -4 38 1 20 6 58 12 83 15 41 4 47 2 52 -17 4 -14 11 -21 20 -17 9 3 19 -4
26 -19 15 -33 14 -56 -4 -90 -8 -16 -15 -35 -15 -41 0 -20 48 -15 59 5 7 14
41 211 41 242 0 15 -20 12 -69 -10z"/>
<path d="M6775 7149 c-4 -6 -13 -8 -20 -5 -17 6 -35 -13 -35 -38 1 -20 1 -20
15 -3 13 18 14 17 30 -7 9 -14 13 -31 9 -37 -5 -9 -1 -10 17 -5 13 4 36 10 52
13 15 3 27 11 27 18 0 8 -8 11 -20 8 -14 -4 -20 0 -20 11 0 14 -33 56 -44 56
-3 0 -8 -5 -11 -11z"/>
<path d="M7070 6760 c-24 -15 -7 -17 35 -4 38 12 38 12 10 13 -16 0 -37 -3
-45 -9z"/>
<path d="M7005 6733 c-30 -7 -43 -23 -18 -23 11 0 26 7 33 15 7 8 11 14 9 14
-2 -1 -13 -3 -24 -6z"/>
<path d="M4427 6163 c-13 -12 -7 -23 13 -23 11 0 20 7 20 15 0 15 -21 21 -33
8z"/>
<path d="M5559 6384 c-11 -14 -10 -16 9 -12 13 1 23 7 23 13 1 17 -17 16 -32
-1z"/>
<path d="M5475 6340 l25 -40 -20 -32 c-24 -39 -25 -58 -5 -58 21 0 46 54 52
116 l6 54 -42 0 -41 0 25 -40z"/>
<path d="M4876 5893 c-11 -11 -7 -31 10 -47 22 -23 34 -20 34 9 0 24 -31 51
-44 38z"/>
<path d="M5193 5473 c-7 -3 -13 -11 -13 -18 0 -16 27 -28 35 -15 9 14 -8 38
-22 33z"/>
<path d="M5353 2438 c-14 -18 -123 -224 -123 -232 0 -4 24 -4 54 -1 43 6 66 3
111 -14 110 -41 127 -24 79 79 -31 68 -97 180 -105 180 -4 0 -11 -6 -16 -12z"/>
<path d="M3811 2521 c-17 -11 -6 -17 44 -26 44 -8 44 -5 -1 18 -17 9 -36 12
-43 8z"/>
<path d="M3543 2383 c-13 -35 -6 -53 18 -53 12 0 21 9 25 28 3 15 7 33 10 40
2 7 -6 12 -20 12 -17 0 -27 -8 -33 -27z"/>
<path d="M8190 2510 c0 -5 4 -10 9 -10 6 0 13 5 16 10 3 6 -1 10 -9 10 -9 0
-16 -4 -16 -10z"/>
<path d="M8043 2469 l-53 -11 0 -53 c0 -71 15 -80 123 -71 86 7 144 26 153 51
11 26 -5 61 -32 74 -37 17 -130 22 -191 10z"/>
<path d="M8285 2332 c-11 -2 -22 -7 -25 -11 -3 -4 -16 -14 -28 -23 l-24 -16
36 -17 c20 -10 36 -21 36 -25 0 -4 10 -7 23 -6 20 1 22 6 19 46 -4 51 -9 58
-37 52z"/>
<path d="M8025 2231 c-29 -6 -30 -8 -30 -66 l0 -60 45 2 c28 2 75 -8 122 -23
94 -32 137 -28 170 17 12 16 28 27 35 25 18 -7 27 37 13 63 -12 23 -25 27 -35
10 -5 -7 -13 -5 -24 5 -33 30 -208 46 -296 27z"/>
<path d="M7955 2070 c-3 -5 -1 -10 4 -10 6 0 11 5 11 10 0 6 -2 10 -4 10 -3 0
-8 -4 -11 -10z"/>
<path d="M8083 2053 c4 -6 25 -13 47 -15 49 -4 37 10 -15 19 -25 4 -36 3 -32
-4z"/>
<path d="M2697 2443 c-4 -3 -7 -89 -7 -191 l0 -185 123 5 c141 6 208 28 248
81 21 28 24 43 24 115 0 83 0 84 -37 117 -50 46 -120 65 -243 65 -56 0 -105
-3 -108 -7z"/>
<path d="M3100 2362 c0 -11 9 -30 20 -43 l20 -24 -2 40 c-2 29 -8 41 -20 43
-12 2 -18 -3 -18 -16z"/>
<path d="M2866 2041 c-58 -9 -59 -31 -2 -31 50 0 96 14 96 30 0 11 -30 11 -94
1z"/>
<path d="M4636 2394 c-12 -30 -6 -44 18 -44 26 0 39 20 30 45 -8 20 -40 19
-48 -1z"/>
</g>
</svg>
